<?xml version="1.0" standalone="no"?>
<!DOCTYPE svg PUBLIC "-//W3C//DTD SVG 20010904//EN"
 "http://www.w3.org/TR/2001/REC-SVG-20010904/DTD/svg10.dtd">
<svg version="1.0" xmlns="http://www.w3.org/2000/svg"
 width="512.000000pt" height="512.000000pt" viewBox="0 0 512.000000 512.000000"
 preserveAspectRatio="xMidYMid meet">
<metadata>
Created by potrace 1.11, written by Peter Selinger 2001-2013
</metadata>
<g transform="translate(0.000000,512.000000) scale(0.100000,-0.100000)"
fill="#000000" stroke="none">
<path d="M2467 4963 c6 -16 5 -16 -10 -4 -14 11 -17 11 -17 0 0 -11 -3 -11
-11 1 -8 11 -12 12 -16 3 -2 -7 -9 -13 -14 -13 -6 0 -8 4 -5 9 7 11 -21 8 -31
-4 -4 -4 -2 -5 6 0 10 6 12 4 6 -5 -6 -10 -10 -10 -19 2 -9 12 -14 13 -23 3
-7 -7 -9 -16 -5 -20 4 -4 -3 -2 -15 6 -12 7 -19 18 -17 24 3 5 -1 2 -9 -7 -13
-16 -15 -16 -32 0 -18 16 -18 16 -5 -1 12 -16 11 -18 -14 -13 -23 4 -27 2 -21
-12 5 -13 3 -14 -6 -5 -6 6 -17 9 -24 7 -7 -3 -16 0 -20 7 -6 8 -13 5 -25 -11
-13 -17 -19 -20 -25 -10 -6 9 -4 11 5 5 9 -5 11 -4 6 4 -11 16 -28 2 -22 -18
5 -14 4 -14 -6 -1 -17 19 -48 22 -41 4 4 -10 0 -12 -12 -8 -10 4 -21 1 -26 -7
-7 -12 -9 -12 -9 1 0 13 -1 13 -10 0 -7 -11 -10 -11 -10 -2 0 7 -5 10 -10 7
-6 -4 -8 -10 -5 -15 3 -4 -5 -6 -17 -2 -16 4 -19 2 -13 -9 6 -11 5 -11 -5 -2
-8 7 -19 9 -29 4 -9 -5 -28 -8 -43 -7 -14 1 -26 -1 -26 -4 1 -18 -3 -30 -13
-30 -5 0 -7 5 -4 10 10 17 -6 11 -23 -8 -10 -10 -13 -12 -9 -6 6 9 2 11 -12 7
-12 -3 -19 -9 -16 -13 3 -4 -2 -11 -11 -14 -8 -3 -12 -2 -9 4 3 6 1 10 -4 10
-6 0 -11 -5 -11 -11 0 -6 -6 -9 -13 -6 -7 3 -19 -3 -25 -13 -7 -11 -20 -17
-32 -15 -11 2 -22 -1 -26 -6 -4 -6 -11 -6 -20 2 -12 9 -13 9 -9 -3 4 -11 -3
-19 -22 -26 -16 -5 -37 -17 -45 -26 -10 -10 -19 -12 -23 -6 -3 5 -1 10 4 10 6
0 11 6 11 13 -1 6 -11 -1 -25 -17 -23 -28 -75 -50 -59 -24 4 7 3 8 -5 4 -6 -4
-8 -12 -5 -18 5 -7 2 -9 -8 -5 -9 3 -24 -1 -35 -9 -17 -14 -17 -14 4 -4 18 8
22 8 17 -4 -3 -8 -17 -13 -34 -12 -16 1 -28 0 -28 -3 2 -28 -2 -33 -19 -20
-13 11 -15 11 -9 1 5 -9 1 -15 -13 -19 -12 -3 -21 -10 -21 -15 0 -6 -7 -8 -15
-4 -8 3 -15 1 -15 -5 0 -6 -6 -7 -12 -3 -8 5 -8 1 2 -12 8 -10 10 -16 6 -12
-5 4 -16 2 -24 -5 -13 -9 -14 -9 -8 1 4 6 2 12 -3 12 -6 0 -11 -6 -11 -14 0
-17 -27 -29 -43 -19 -8 5 -8 2 0 -9 17 -19 4 -32 -15 -15 -10 7 -13 8 -9 1 4
-7 -1 -18 -10 -25 -14 -12 -16 -12 -8 0 6 10 4 12 -4 7 -7 -5 -10 -14 -7 -22
5 -12 2 -12 -15 -3 -15 8 -19 8 -15 0 4 -6 2 -11 -4 -11 -6 0 -8 -5 -4 -12 5
-7 2 -9 -9 -5 -11 4 -14 2 -10 -9 4 -10 0 -12 -11 -8 -11 4 -19 -2 -26 -21 -8
-22 -13 -25 -25 -15 -12 10 -13 7 -9 -17 3 -19 2 -24 -5 -14 -5 8 -16 11 -26
7 -14 -5 -15 -9 -5 -21 11 -14 10 -14 -14 -5 -24 9 -29 8 -33 -11 -4 -15 -8
-17 -14 -8 -5 9 -11 5 -20 -14 -6 -14 -15 -25 -19 -22 -3 2 -17 -9 -30 -26
-14 -16 -30 -29 -37 -29 -7 0 -10 -7 -6 -17 4 -10 2 -14 -4 -10 -6 4 -18 -4
-27 -18 -19 -29 -20 -39 -3 -29 8 5 8 3 -2 -9 -7 -9 -18 -14 -24 -10 -6 3 -7
1 -3 -5 4 -7 2 -12 -4 -12 -6 0 -8 -4 -5 -10 3 -5 0 -10 -7 -10 -17 0 -53 -41
-50 -56 1 -7 -6 -11 -15 -10 -14 1 -17 -5 -15 -27 2 -18 -1 -26 -7 -22 -6 3
-11 -1 -11 -9 0 -9 -5 -16 -11 -16 -5 0 -7 5 -3 12 4 6 3 8 -4 4 -6 -3 -9 -16
-7 -27 3 -15 1 -18 -8 -11 -11 10 -16 -9 -20 -80 -1 -9 -5 -14 -10 -11 -5 3
-6 12 -2 22 5 12 3 13 -5 5 -9 -9 -9 -17 0 -33 6 -12 7 -21 3 -20 -4 1 -17 1
-28 0 -17 -1 -18 -3 -5 -11 10 -6 11 -10 3 -10 -7 0 -13 -7 -13 -15 0 -9 -6
-18 -14 -21 -8 -3 -12 -12 -9 -20 3 -7 -2 -17 -11 -20 -9 -3 -14 -10 -11 -14
3 -4 -2 -11 -11 -14 -14 -5 -14 -9 -3 -23 8 -9 9 -14 3 -10 -7 4 -19 -5 -29
-19 -9 -15 -12 -23 -5 -19 8 5 11 3 8 -6 -3 -8 -10 -13 -16 -12 -7 2 -9 -4 -5
-14 5 -12 3 -14 -7 -8 -10 6 -12 4 -7 -10 5 -11 1 -23 -10 -32 -10 -8 -12 -11
-5 -8 11 6 12 3 3 -12 -6 -11 -7 -24 -3 -28 4 -3 1 -5 -7 -3 -7 1 -16 -3 -19
-11 -3 -8 0 -11 7 -7 7 4 9 1 5 -8 -3 -9 -12 -12 -22 -8 -15 5 -15 4 -3 -11
11 -14 11 -18 -1 -22 -10 -4 -14 -15 -11 -33 3 -19 2 -23 -5 -14 -7 11 -10 9
-15 -7 -3 -12 -1 -19 4 -15 5 3 6 -2 3 -10 -3 -9 -10 -14 -14 -11 -10 6 -8
-15 3 -32 5 -9 3 -11 -6 -7 -11 4 -14 -2 -11 -21 1 -15 -3 -28 -12 -32 -10 -4
-11 -10 -3 -25 7 -12 7 -18 1 -14 -11 7 -25 -21 -17 -34 3 -5 1 -11 -5 -15 -5
-3 -10 -20 -10 -36 0 -17 -4 -28 -8 -25 -4 2 -6 -12 -4 -31 4 -30 2 -35 -11
-30 -11 4 -14 2 -10 -8 3 -8 9 -13 13 -10 5 3 12 0 16 -6 4 -8 3 -9 -4 -5 -7
4 -12 1 -12 -8 0 -9 -5 -16 -11 -16 -8 0 -8 -4 0 -14 10 -11 8 -17 -6 -25 -12
-7 -13 -10 -4 -11 11 0 11 -3 0 -17 -11 -12 -11 -17 -2 -20 9 -3 9 -10 1 -29
-10 -20 -9 -27 3 -36 11 -8 11 -9 -3 -4 -10 3 -20 1 -23 -4 -4 -6 1 -10 9 -10
10 0 13 -6 10 -15 -4 -8 -9 -13 -13 -10 -10 5 -8 -36 2 -52 4 -6 3 -15 -3 -18
-8 -5 -7 -12 2 -23 10 -12 10 -14 1 -8 -7 4 -13 2 -13 -3 0 -6 6 -11 13 -11 8
0 8 -3 2 -8 -16 -10 -17 -54 -2 -45 7 4 6 0 -2 -10 -11 -14 -11 -20 0 -34 8
-9 9 -14 3 -10 -7 4 -11 -2 -11 -18 0 -14 5 -25 11 -25 7 0 8 -3 1 -8 -16 -10
-17 -54 -2 -45 7 4 6 0 -2 -10 -11 -14 -11 -20 0 -34 8 -9 10 -14 4 -11 -6 4
-10 -9 -10 -32 -1 -21 2 -37 6 -34 13 8 18 -26 9 -52 -7 -18 -7 -23 1 -18 8 4
9 -1 4 -16 -6 -17 -4 -21 6 -14 12 6 12 5 0 -9 -10 -13 -10 -17 -1 -17 10 0
10 -3 0 -15 -10 -12 -10 -15 1 -15 11 0 11 -2 -1 -10 -8 -5 -10 -10 -4 -10 7
0 15 -7 18 -16 3 -8 2 -13 -2 -10 -4 2 -7 -28 -7 -67 1 -60 5 -72 18 -72 14 0
21 -7 16 -17 -4 -9 -3 -106 1 -106 26 2 32 -4 26 -28 -4 -14 -3 -23 2 -20 4 2
7 -8 6 -25 -1 -16 1 -27 4 -25 9 5 27 -15 28 -31 2 -30 5 -34 14 -28 13 8 13
-8 0 -23 -6 -6 -7 -10 -4 -7 11 7 34 -23 34 -44 0 -13 6 -21 17 -21 15 0 14
-2 -3 -16 -10 -8 -13 -13 -6 -9 7 4 12 0 12 -10 0 -9 4 -14 9 -11 12 8 19 -14
16 -47 -2 -15 2 -27 8 -27 7 0 5 -5 -3 -10 -12 -8 -10 -10 10 -10 20 0 22 -2
10 -10 -13 -9 -13 -10 0 -10 12 0 12 -2 2 -9 -11 -6 -8 -14 12 -34 17 -17 21
-27 13 -30 -9 -4 -9 -6 1 -6 7 -1 10 -6 7 -12 -8 -12 23 -49 42 -49 7 0 13 -4
13 -9 0 -5 3 -17 7 -27 5 -13 3 -15 -8 -9 -8 4 -2 -5 12 -21 15 -16 24 -35 22
-41 -3 -7 2 -13 11 -13 8 0 18 -5 22 -12 5 -7 2 -9 -7 -4 -8 4 -5 0 5 -8 11
-9 23 -16 28 -16 4 0 8 -7 8 -15 0 -8 6 -15 14 -15 8 0 13 -10 12 -23 -1 -23
15 -47 33 -47 6 0 10 -4 8 -9 -3 -11 60 -71 67 -64 3 4 6 -1 6 -9 0 -9 6 -18
12 -21 10 -3 9 -8 -2 -22 -14 -17 -13 -18 8 -13 12 4 20 2 16 -3 -5 -9 43 -59
57 -59 5 0 9 -5 9 -11 0 -6 16 -25 35 -43 19 -18 31 -37 27 -41 -4 -5 -2 -5 4
-2 11 6 46 -28 37 -37 -3 -3 8 -1 26 4 19 5 29 5 26 -1 -4 -5 -1 -17 4 -26 6
-10 11 -14 11 -9 0 11 40 -34 40 -46 0 -4 9 -8 21 -8 11 0 18 -3 16 -7 -6 -11
14 -27 37 -31 13 -2 16 1 10 10 -6 10 -5 10 9 0 9 -8 15 -19 14 -25 -1 -7 6
-11 15 -11 11 1 14 -4 11 -14 -4 -10 -2 -13 5 -8 7 4 12 1 12 -8 0 -20 28 -35
53 -28 11 3 18 1 15 -4 -3 -5 3 -17 13 -26 10 -9 19 -12 21 -7 2 6 11 7 21 4
9 -4 14 -11 11 -16 -3 -5 2 -9 10 -9 9 0 16 -6 16 -14 0 -8 5 -18 12 -22 7 -5
8 -3 3 7 -5 8 0 7 12 -3 22 -20 38 -24 27 -6 -4 7 -3 8 4 4 7 -4 12 -13 12
-21 0 -8 9 -12 25 -10 17 1 25 -3 25 -13 0 -8 3 -12 7 -9 3 4 12 -1 19 -11 8
-10 13 -12 14 -5 0 19 27 4 33 -18 5 -17 9 -19 26 -9 16 8 21 8 21 -2 0 -9 3
-9 10 2 6 10 10 11 10 3 0 -7 9 -13 20 -13 11 0 20 -7 20 -15 0 -13 4 -14 23
-4 12 6 19 8 15 5 -3 -4 3 -17 15 -29 13 -13 22 -17 25 -9 2 7 9 9 15 5 20
-12 37 -12 38 0 1 7 4 1 8 -13 5 -17 13 -24 25 -22 12 2 16 -1 11 -10 -3 -7 1
-4 9 6 10 13 16 15 16 7 0 -11 3 -11 17 0 12 10 15 10 9 1 -10 -17 13 -37 47
-39 19 -1 26 2 21 10 -5 9 -4 9 6 0 7 -6 19 -9 26 -6 8 3 14 1 14 -4 0 -4 9
-14 21 -21 17 -11 23 -11 37 0 9 7 13 8 9 2 -4 -7 2 -14 13 -17 11 -3 23 -1
26 4 3 6 15 9 27 7 24 -3 47 -20 41 -29 -5 -9 79 -5 95 5 9 6 12 5 8 -1 -9
-14 44 -14 62 1 9 7 12 7 8 0 -4 -7 16 -11 58 -11 46 0 63 3 58 11 -5 8 -3 8
8 0 19 -15 82 -16 73 -2 -5 7 -2 8 7 2 23 -14 51 -16 43 -2 -5 8 -3 8 7 2 21
-13 89 -14 89 0 0 8 3 7 8 -1 8 -13 29 -12 51 1 9 6 12 5 8 -1 -4 -6 11 -10
38 -10 27 0 42 4 38 10 -4 6 -1 7 8 1 19 -12 111 -14 126 -2 6 5 9 17 6 26 -3
10 -2 13 4 6 4 -6 34 -10 65 -8 41 1 56 -2 52 -10 -3 -6 5 0 18 14 17 18 32
25 55 24 22 -1 30 2 26 10 -5 8 -3 8 8 -1 24 -19 28 -19 44 4 11 16 24 21 53
20 29 -1 37 2 36 16 -1 9 2 14 7 11 5 -3 17 0 28 6 13 7 22 7 26 0 9 -15 45 7
46 28 0 11 2 12 6 4 4 -10 8 -10 19 -1 11 9 14 8 14 -2 1 -8 8 0 17 16 9 17
18 25 20 18 3 -7 9 -13 14 -13 6 0 7 5 3 11 -5 8 -2 9 12 1 15 -8 23 -5 42 15
19 21 26 23 32 12 7 -11 10 -10 16 4 3 9 10 14 15 11 5 -3 9 2 9 11 0 9 5 13
10 10 14 -9 52 4 45 16 -4 5 2 9 12 9 11 0 25 6 32 13 11 9 13 9 7 0 -4 -7 -5
-13 -2 -13 3 0 13 14 22 31 13 26 20 30 44 27 16 -2 27 -1 24 4 -3 4 0 8 6 8
6 0 8 5 4 12 -5 8 -2 9 11 4 16 -6 16 -4 4 10 -13 16 -12 16 9 5 15 -8 22 -8
22 -1 0 6 4 9 8 6 10 -6 42 29 42 45 0 5 5 7 10 4 6 -3 10 1 10 10 0 11 5 15
16 11 10 -4 13 -2 8 6 -5 7 0 9 14 6 15 -4 28 3 46 23 15 16 26 32 27 36 1 14
9 17 9 3 0 -7 9 -1 21 14 11 14 18 30 14 36 -3 5 0 7 8 4 8 -3 18 0 22 6 6 9
10 9 16 -1 7 -11 9 -11 9 -1 0 7 5 10 10 7 6 -3 10 0 10 8 0 8 7 18 16 21 9 3
14 13 11 21 -4 9 -1 12 9 8 7 -3 14 0 14 6 0 6 11 16 24 23 14 7 25 16 25 21
1 4 1 12 1 18 0 5 5 7 10 4 6 -3 10 -1 10 4 0 6 7 11 16 11 10 0 14 6 11 14
-4 9 2 17 14 21 13 4 18 12 15 21 -3 9 -1 12 5 9 6 -4 10 -1 8 6 -3 24 1 40 9
36 10 -7 62 49 54 58 -4 5 2 5 13 1 11 -4 16 -4 13 0 -4 3 0 13 8 21 8 8 11
20 7 26 -4 6 0 8 11 4 14 -6 15 -3 6 13 -10 19 -4 25 22 21 4 0 4 7 1 16 -5
13 -2 15 11 10 10 -4 15 -3 11 3 -3 6 -1 10 5 10 6 0 8 4 5 10 -5 9 7 14 27
11 4 0 5 11 2 24 -2 14 0 25 6 25 6 0 8 5 5 10 -3 6 1 10 10 10 11 0 14 7 11
25 -3 13 0 28 6 31 7 5 8 2 4 -7 -4 -8 0 -5 8 5 9 11 16 24 16 29 0 4 4 6 9 3
4 -3 13 6 20 20 6 14 7 23 3 20 -5 -3 -9 1 -9 9 0 8 4 12 9 9 4 -3 8 0 8 6 0
6 5 8 10 5 7 -4 9 3 6 19 -3 15 -1 24 5 21 5 -4 9 1 9 10 0 10 5 13 12 9 8 -5
9 -2 5 9 -4 10 -2 17 5 17 7 0 6 6 -2 16 -8 8 -9 14 -4 13 20 -3 35 1 30 10
-4 5 0 12 6 14 10 4 9 6 -1 6 -11 1 -11 4 -1 16 8 10 9 15 2 15 -6 0 -9 7 -6
15 4 8 10 12 15 9 5 -3 9 2 9 10 0 9 4 16 8 16 5 0 8 10 8 23 -1 13 4 21 12
19 8 -1 11 2 8 7 -4 5 0 11 6 14 10 3 10 7 -1 20 -9 11 -10 17 -2 17 7 0 10
10 7 25 -3 14 -1 23 5 20 14 -9 30 5 22 18 -11 18 -11 47 0 40 6 -4 8 1 4 11
-4 9 -3 15 1 13 13 -9 27 17 26 48 -1 17 3 36 9 43 6 7 6 12 1 11 -21 -4 -24
2 -10 17 9 8 20 13 25 10 5 -3 7 10 4 30 -4 29 -2 35 9 28 11 -6 10 -5 -1 9
-10 13 -11 20 -2 30 6 8 8 17 4 21 -14 14 -12 38 4 32 11 -5 13 -2 9 10 -4 11
-2 15 8 11 10 -4 13 -1 9 9 -3 7 -10 14 -17 14 -6 0 -4 5 4 10 13 9 13 11 0
20 -8 5 -10 10 -4 10 17 0 12 50 -5 50 -14 0 -14 1 -1 10 18 11 25 64 7 53 -9
-5 -9 -3 -1 8 15 20 15 60 1 78 -9 12 -9 13 1 7 13 -8 13 19 -1 40 -4 7 0 17
8 24 10 9 12 16 5 25 -5 6 -8 27 -5 45 2 20 -1 38 -8 42 -9 6 -9 8 1 8 7 0 10
5 7 10 -3 6 0 10 7 11 7 0 4 4 -7 9 -12 5 -14 9 -6 9 11 1 10 6 -5 23 -19 22
-19 22 0 8 18 -14 19 -13 13 3 -4 10 -2 17 5 17 7 0 3 7 -8 15 -12 9 -15 17
-9 22 12 9 13 28 2 39 -9 10 -9 37 1 30 4 -2 8 4 8 14 0 10 -3 17 -7 14 -4 -2
-10 2 -13 8 -3 7 -3 2 0 -12 4 -21 3 -22 -6 -7 -6 9 -8 23 -4 29 11 17 12 48
3 48 -5 0 -6 7 -3 15 4 9 0 15 -7 15 -9 0 -10 3 -4 8 6 4 10 17 11 29 0 18 -2
20 -13 11 -11 -9 -13 -8 -11 3 2 8 9 19 16 24 11 9 10 14 -5 26 -16 13 -17 13
-4 -3 9 -12 10 -18 2 -18 -6 0 -11 5 -11 10 0 16 -2 23 -11 47 -5 13 -4 25 2
28 5 4 7 11 3 16 -3 5 -11 6 -17 2 -7 -4 -4 6 7 21 10 16 14 26 10 23 -14 -8
-29 15 -32 52 -3 25 -1 31 10 26 7 -5 10 -4 5 1 -5 5 -13 10 -18 10 -5 1 -13
2 -18 3 -5 0 -7 11 -3 23 4 16 2 19 -9 13 -12 -8 -12 -6 0 8 11 14 11 17 0 17
-12 0 -12 2 -1 9 11 7 11 9 -2 14 -8 3 -20 16 -26 28 -8 15 -9 19 -1 15 15
-10 14 7 -1 22 -9 9 -9 12 0 12 7 0 12 5 12 10 0 7 -6 7 -18 1 -14 -7 -19 -6
-19 4 0 8 5 12 11 9 6 -3 3 1 -6 9 -18 14 -25 33 -10 23 14 -8 7 33 -8 47 -10
9 -11 9 -6 0 5 -8 2 -11 -7 -8 -7 3 -12 18 -11 35 1 17 -6 41 -18 55 -11 14
-16 25 -11 25 4 1 -3 10 -16 20 -14 12 -21 26 -17 35 3 9 2 13 -4 10 -6 -3
-10 -1 -10 5 0 6 -6 8 -12 4 -10 -5 -10 -4 -1 6 10 11 9 16 -5 27 -12 10 -12
12 -2 8 10 -4 9 -2 -2 8 -10 8 -18 22 -18 31 0 9 -5 16 -11 16 -5 0 -7 4 -4
10 4 6 -1 7 -12 3 -16 -6 -17 -5 -3 12 9 11 10 16 3 11 -8 -4 -13 -2 -13 4 0
6 -5 8 -12 4 -8 -5 -7 0 2 11 8 10 11 16 5 13 -5 -3 -15 0 -22 7 -10 11 -10
15 0 18 7 3 4 6 -6 6 -10 1 -15 6 -12 11 3 6 -2 10 -12 10 -15 0 -16 2 -3 10
11 7 11 10 2 10 -7 0 -10 5 -7 10 3 6 1 10 -5 10 -6 0 -8 5 -4 13 5 8 2 8 -9
-2 -15 -12 -17 -11 -17 11 0 26 -27 58 -50 58 -10 0 -10 3 1 17 12 14 12 16 0
8 -11 -6 -13 -4 -8 8 4 11 1 15 -13 12 -13 -3 -17 1 -13 11 3 8 -4 22 -14 32
-15 13 -18 22 -12 40 8 20 7 21 -11 12 -11 -6 -20 -7 -19 -3 5 29 -35 77 -57
69 -8 -3 -11 0 -7 10 5 13 -8 19 -31 15 -5 -1 -4 5 4 13 10 13 10 16 -1 17 -8
1 -18 0 -24 -1 -5 -1 -7 1 -3 5 12 12 -53 67 -73 62 -17 -5 -24 4 -20 26 1 5
-2 6 -6 4 -9 -6 -39 13 -41 26 -1 4 -2 13 -2 20 0 8 -4 7 -10 -3 -9 -13 -10
-13 -11 0 -1 8 -1 19 0 24 1 5 -5 6 -13 3 -9 -4 -18 -2 -21 3 -4 6 0 10 7 11
7 0 4 4 -7 8 -11 5 -28 5 -37 0 -13 -7 -16 -5 -13 11 2 11 1 19 -3 19 -20 -3
-30 3 -35 22 -4 14 -11 20 -21 16 -10 -4 -13 -1 -9 9 3 9 -1 14 -12 14 -10 0
-13 4 -9 13 6 9 5 9 -7 0 -15 -12 -43 -3 -37 13 1 5 -5 10 -16 12 -13 3 -16 0
-10 -10 4 -7 -2 -5 -13 5 -11 9 -22 14 -26 11 -3 -3 -3 5 0 18 5 23 5 23 -11
3 -9 -11 -15 -14 -14 -6 4 17 -44 23 -55 7 -5 -6 -6 -1 -2 11 5 18 3 21 -14
18 -15 -3 -21 1 -21 13 0 15 -2 15 -10 2 -8 -12 -10 -12 -10 5 0 17 -2 17 -10
5 -8 -13 -10 -12 -10 4 0 16 -2 17 -17 5 -15 -12 -16 -12 -10 4 4 11 3 16 -3
12 -6 -3 -10 -1 -10 6 0 8 -5 7 -17 -2 -9 -8 -14 -9 -11 -4 4 6 -2 17 -14 24
-16 10 -19 10 -12 -1 4 -7 -4 -3 -18 10 -17 15 -28 20 -33 13 -4 -8 -12 -4
-23 9 -19 24 -54 32 -64 16 -5 -7 -8 -4 -8 8 0 15 -3 16 -15 6 -13 -11 -14
-10 -9 4 5 12 2 15 -12 9 -10 -4 -15 -2 -11 4 3 5 0 10 -8 10 -8 0 -11 -5 -8
-11 4 -6 0 -5 -9 2 -9 7 -20 12 -24 11 -20 -3 -35 2 -30 10 3 5 -1 12 -10 15
-8 3 -12 2 -9 -4 10 -17 -7 -11 -22 8 -8 9 -12 11 -8 5 4 -8 0 -13 -10 -13
-10 0 -13 5 -9 13 5 7 0 6 -11 -3 -11 -9 -16 -10 -11 -2 5 8 -1 12 -18 12 -14
0 -26 5 -26 10 0 7 -7 7 -21 -1 -16 -8 -20 -8 -14 1 4 7 1 11 -6 9 -25 -3 -40
1 -35 9 3 5 -1 9 -9 9 -8 0 -12 -4 -9 -9 3 -4 1 -8 -5 -8 -5 0 -12 6 -14 13
-4 10 -6 10 -6 0 -1 -7 -6 -13 -12 -13 -5 0 -8 4 -5 9 8 13 -18 21 -45 14 -13
-4 -20 -2 -16 3 3 5 -3 10 -13 10 -10 0 -16 -4 -14 -8 3 -4 0 -8 -5 -8 -6 0
-11 5 -11 10 0 6 -5 10 -11 10 -5 0 -8 -4 -5 -8 3 -5 -1 -9 -9 -9 -18 0 -19 9
-2 26 6 8 0 6 -15 -4 -16 -9 -28 -13 -28 -9 0 5 -4 3 -9 -4 -7 -11 -9 -10 -14
3 -5 11 -3 14 6 9 6 -4 8 -3 4 1 -11 13 -38 15 -30 2 4 -7 0 -8 -11 -4 -10 4
-20 7 -22 7 -3 0 -2 6 2 13 6 9 4 9 -7 1 -8 -6 -22 -10 -31 -9 -10 2 -21 -1
-24 -7 -3 -5 -15 -2 -27 9 -11 10 -17 12 -13 6 4 -8 1 -13 -9 -13 -10 0 -14 5
-10 13 4 6 -1 3 -9 -7 -9 -11 -16 -15 -16 -10 0 6 -18 10 -40 11 -24 0 -40 -4
-40 -11 0 -6 -5 -4 -10 4 -5 8 -10 11 -10 7 0 -4 -9 -3 -20 3 -17 9 -19 8 -13
-7z m258 -12 c3 -5 2 -12 -3 -15 -5 -3 -9 1 -9 9 0 17 3 19 12 6z m-835 -91
c0 -5 -5 -10 -11 -10 -5 0 -7 5 -4 10 3 6 8 10 11 10 2 0 4 -4 4 -10z m1570
-76 c0 -2 -9 0 -20 6 -11 6 -20 13 -20 16 0 2 9 0 20 -6 11 -6 20 -13 20 -16z
m871 -561 c13 -16 12 -17 -3 -4 -17 13 -22 21 -14 21 2 0 10 -8 17 -17z m139
-198 c7 -9 8 -15 2 -15 -5 0 -12 7 -16 15 -3 8 -4 15 -2 15 2 0 9 -7 16 -15z
m260 -425 c6 -11 8 -20 6 -20 -3 0 -10 9 -16 20 -6 11 -8 20 -6 20 3 0 10 -9
16 -20z m-4200 -2340 c0 -5 -2 -10 -4 -10 -3 0 -8 5 -11 10 -3 6 -1 10 4 10 6
0 11 -4 11 -10z"/>
<path d="M1666 4798 c3 -5 10 -6 15 -3 13 9 11 12 -6 12 -8 0 -12 -4 -9 -9z"/>
<path d="M1470 4709 c0 -5 5 -7 10 -4 6 3 10 8 10 11 0 2 -4 4 -10 4 -5 0 -10
-5 -10 -11z"/>
<path d="M4828 3373 c7 -3 16 -2 19 1 4 3 -2 6 -13 5 -11 0 -14 -3 -6 -6z"/>
<path d="M155 2320 c3 -5 8 -10 11 -10 2 0 4 5 4 10 0 6 -5 10 -11 10 -5 0 -7
-4 -4 -10z"/>
</g>
</svg>
